<svg xmlns="http://www.w3.org/2000/svg" version="1.1" xmlns:xlink="http://www.w3.org/1999/xlink" xmlns:svgjs="http://svgjs.dev/svgjs" width="1000" height="1000" viewBox="0 0 1000 1000"><rect width="1000" height="1000" fill="#ffffff"></rect><g transform="matrix(0.7,0,0,0.7,149.5757575757575,421.45037257682924)"><svg viewBox="0 0 396 89" data-background-color="#ffffff" preserveAspectRatio="xMidYMid meet" height="224" width="1000" xmlns="http://www.w3.org/2000/svg" xmlns:xlink="http://www.w3.org/1999/xlink"><g id="tight-bounds" transform="matrix(1,0,0,1,0.24000000000003752,0.08492883075382451)"><svg viewBox="0 0 395.5199999999999 88.83014095689079" height="88.83014095689079" width="395.5199999999999"><g><svg viewBox="0 0 397.4975999999999 89.27429166167524" height="88.83014095689079" width="395.5199999999999"><g><rect width="397.4975999999999" height="2.8680792409837066" x="0" y="40.472466628837005" fill="#233565" opacity="1" stroke-width="0" stroke="transparent" fill-opacity="1" class="rect-o-0" data-fill-palette-color="primary" rx="1%" id="o-0" data-palette-color="#233565"></rect></g><g><rect width="397.4975999999999" height="2.8680792409837066" x="0" y="47.09457628995645" fill="#233565" opacity="1" stroke-width="0" stroke="transparent" fill-opacity="1" class="rect-o-1" data-fill-palette-color="primary" rx="1%" id="o-1" data-palette-color="#233565"></rect></g><g transform="matrix(1,0,0,1,0.9887999999999693,57.47071637121164)"><svg viewBox="0 0 395.52 31.80357529046359" height="31.80357529046359" width="395.52"><g id="textblocktransform"><svg viewBox="0 0 395.52 31.80357529046359" height="31.80357529046359" width="395.52" id="textblock"><g><svg viewBox="0 0 395.52 31.80357529046359" height="31.80357529046359" width="395.52"><g transform="matrix(1,0,0,1,0,0)"><svg width="395.52" viewBox="3.3499999046325684 -34.599998474121094 434.6199951171875 34.94999694824219" height="31.80357529046359" data-palette-color="#233565"><path d="M35.3-29.95L35.3-4.75Q35.3-2.55 34-1.28 32.7 0 30.2 0L30.2 0Q29.55 0 28.9-0.15 28.25-0.3 27.53-0.7 26.8-1.1 26.25-1.45 25.7-1.8 24.88-2.53 24.05-3.25 23.58-3.68 23.1-4.1 22.1-5.05 21.1-6 20.65-6.45L20.65-6.45 11.5-15.1 11.5-4.25Q11.5-1.8 10.58-0.9 9.65 0 7.65 0L7.65 0Q5.45 0 4.4-1 3.35-2 3.35-4.35L3.35-4.35 3.35-28.5Q3.35-31.35 4.8-32.8 6.25-34.25 8.95-34.25L8.95-34.25Q10.8-34.25 11.93-33.68 13.05-33.1 14.6-31.6L14.6-31.6 27.25-19 27.25-29.9Q27.25-32.05 28.33-33.13 29.4-34.2 31.25-34.2L31.25-34.2Q33.4-34.2 34.35-33.2 35.3-32.2 35.3-29.95L35.3-29.95ZM53.65-28.7L53.65-7.5Q53.65-3.6 52.2-1.8 50.75 0 47.8 0L47.8 0Q44.9 0 43.52-1.55 42.15-3.1 42.15-7.1L42.15-7.1 42.15-28.25Q42.15-34.25 47.8-34.25L47.8-34.25Q50.7-34.25 52.17-33.15 53.65-32.05 53.65-28.7L53.65-28.7ZM80.5-24.85L80.5-24.85Q80.5-25.9 79.62-26.65 78.75-27.4 77.55-27.4L77.55-27.4Q75.15-27.4 73.6-24.68 72.05-21.95 72.05-18.5L72.05-18.5Q72.05-15.85 73.05-13.73 74.05-11.6 75.95-10.35 77.85-9.1 80.35-9.1L80.35-9.1Q82.2-9.1 83.9-9.83 85.6-10.55 86.65-11.43 87.7-12.3 88.82-13.03 89.95-13.75 90.8-13.75L90.8-13.75Q91.9-13.75 92.7-12.88 93.5-12 93.5-11.05L93.5-11.05Q93.5-10 92.87-8.6 92.25-7.2 90.9-5.63 89.55-4.05 87.75-2.73 85.95-1.4 83.27-0.53 80.6 0.35 77.65 0.35L77.65 0.35Q73.75 0.35 70.42-0.83 67.1-2 64.65-4.17 62.2-6.35 60.8-9.65 59.4-12.95 59.4-17.05L59.4-17.05Q59.4-25.15 64.25-29.85 69.1-34.55 76.95-34.55L76.95-34.55Q80.95-34.55 84.35-33.2 87.75-31.85 89.75-29.45 91.75-27.05 91.75-24.2L91.75-24.2Q91.75-20.9 89.55-18.23 87.35-15.55 83.85-15.55L83.85-15.55Q81.85-15.55 80.25-16.65 78.65-17.75 78.65-19.8L78.65-19.8Q78.65-20.75 79.57-22.45 80.5-24.15 80.5-24.85ZM132.14-28.7L132.14-7.5Q132.14-3.45 130.69-1.73 129.24 0 126.29 0L126.29 0Q123.39 0 122.04-1.58 120.69-3.15 120.69-7.15L120.69-7.15 120.64-12.8 110.44-12.8 110.44-7.5Q110.44-3.4 109.04-1.7 107.64 0 104.59 0L104.59 0Q101.69 0 100.34-1.58 98.99-3.15 98.99-7.15L98.99-7.15 98.84-28.25Q98.84-31.35 100.42-32.8 101.99-34.25 104.59-34.25L104.59-34.25Q107.59-34.25 109.02-33.15 110.44-32.05 110.44-28.7L110.44-28.7 110.44-20.3 120.59-20.3 120.59-28.25Q120.59-30.35 121.37-31.73 122.14-33.1 123.37-33.68 124.59-34.25 126.29-34.25L126.29-34.25Q129.19-34.25 130.67-33.15 132.14-32.05 132.14-28.7L132.14-28.7ZM154.84-7L154.84-7Q156.54-7 157.77-8.5 158.99-10 159.52-12.2 160.04-14.4 160.04-16.9L160.04-16.9Q160.04-19.45 159.49-21.73 158.94-24 157.72-25.6 156.49-27.2 154.84-27.2L154.84-27.2Q153.24-27.2 152.04-25.6 150.84-24 150.24-21.7 149.64-19.4 149.64-16.9L149.64-16.9Q149.64-14.4 150.22-12.2 150.79-10 152.02-8.5 153.24-7 154.84-7ZM163.69-1.68Q159.74 0.3 154.81 0.3 149.89 0.3 145.97-1.68 142.04-3.65 139.69-7.6 137.34-11.55 137.34-16.9L137.34-16.9Q137.34-25 142.22-29.78 147.09-34.55 154.84-34.55 162.59-34.55 167.49-29.78 172.39-25 172.39-16.9L172.39-16.9Q172.39-11.55 170.02-7.6 167.64-3.65 163.69-1.68ZM197.64 0L184.59 0Q182.29-0.05 180.89-0.73 179.49-1.4 178.79-2.95 178.09-4.5 178.09-7.1L178.09-7.1 178.09-28.25Q178.09-30.9 179.64-32.58 181.19-34.25 183.74-34.25L183.74-34.25Q186.74-34.25 188.16-33.15 189.59-32.05 189.59-28.7L189.59-28.7 189.59-8.65 198.14-8.65Q201.04-8.65 202.21-7.8 203.39-6.95 203.39-4.3L203.39-4.3Q203.39-1.6 202.04-0.8 200.69 0 197.64 0L197.64 0ZM223.29-26.1L223.29-26.1Q221.14-26.1 220.11-24.85 219.09-23.6 219.09-20.4L219.09-20.4 219.09-14.5 227.39-14.5 227.39-20.5Q227.39-22.6 226.89-23.88 226.39-25.15 225.51-25.63 224.64-26.1 223.29-26.1ZM227.39-4.95L227.39-7.6 219.09-7.6 219.09-4.95Q219.09-2.4 217.74-1.2 216.39 0 213.09 0L213.09 0Q211.69 0 210.79-0.4 209.89-0.8 209.21-1.75 208.54-2.7 208.21-4.53 207.89-6.35 207.71-8.93 207.54-11.5 207.54-15.45L207.54-15.45Q207.54-18.9 208.26-21.78 208.99-24.65 210.21-26.65 211.44-28.65 212.99-30.18 214.54-31.7 216.36-32.55 218.19-33.4 219.91-33.83 221.64-34.25 223.39-34.25L223.39-34.25Q225.49-34.25 227.54-33.68 229.59-33.1 231.69-31.7 233.79-30.3 235.36-28.23 236.94-26.15 237.94-22.85 238.94-19.55 238.94-15.45L238.94-15.45Q238.94-8.85 238.46-5.68 237.99-2.5 236.86-1.25 235.74 0 233.39 0L233.39 0Q230.09 0 228.74-1.2 227.39-2.4 227.39-4.95L227.39-4.95ZM258.08-34.6L258.08-34.6Q264.03-34.6 268.23-32.15 272.43-29.7 272.43-26.95L272.43-26.95Q272.43-26.2 272.11-25.68 271.78-25.15 271.31-24.93 270.83-24.7 270.28-24.7L270.28-24.7Q269.38-24.7 267.58-25.63 265.78-26.55 263.58-27.48 261.38-28.4 259.53-28.4L259.53-28.4Q256.58-28.4 256.58-26L256.58-26Q256.58-25.25 257.06-24.58 257.53-23.9 258.58-23.18 259.63-22.45 260.63-21.9 261.63-21.35 263.38-20.43 265.13-19.5 266.33-18.8L266.33-18.8Q270.18-16.6 271.73-14.6 273.28-12.6 273.28-10L273.28-10Q273.28 0.35 259.33 0.35L259.33 0.35Q256.58 0.35 254.01-0.2 251.43-0.75 249.51-1.65 247.58-2.55 246.11-3.65 244.63-4.75 243.88-5.9 243.13-7.05 243.13-8.05L243.13-8.05Q243.13-9.15 243.86-9.93 244.58-10.7 245.98-10.7L245.98-10.7Q247.03-10.7 251.03-9.38 255.03-8.05 257.48-8.05L257.48-8.05Q259.73-8.05 259.73-9.6L259.73-9.6Q259.73-10.05 259.56-10.43 259.38-10.8 258.96-11.18 258.53-11.55 258.01-11.88 257.48-12.2 256.56-12.7 255.63-13.2 254.71-13.7 253.78-14.2 252.28-15 250.78-15.8 249.38-16.6L249.38-16.6Q247.53-17.65 246.21-19.2 244.88-20.75 244.28-22.28 243.68-23.8 243.68-25.1L243.68-25.1Q243.68-29.3 247.43-31.95 251.18-34.6 258.08-34.6ZM307.78-8.15L307.78-8.15Q310.33-8.15 311.1-9.45 311.88-10.75 311.88-13.9L311.88-13.9Q311.88-15.4 311.9-20.83 311.93-26.25 311.93-29.1L311.93-29.1Q311.93-31.75 313.2-32.98 314.48-34.2 317.58-34.2L317.58-34.2Q320.33-34.2 321.68-32.83 323.03-31.45 323.58-27.83 324.13-24.2 324.13-16.8L324.13-16.8Q324.13-13.65 323.4-11.05 322.68-8.45 321.4-6.63 320.13-4.8 318.53-3.43 316.93-2.05 315.08-1.25 313.23-0.45 311.43-0.05 309.63 0.35 307.88 0.35L307.88 0.35Q305.73 0.35 303.55-0.18 301.38-0.7 299.15-2 296.93-3.3 295.23-5.18 293.53-7.05 292.45-10.08 291.38-13.1 291.38-16.8L291.38-16.8Q291.38-24.2 291.98-27.83 292.58-31.45 294.03-32.83 295.48-34.2 298.48-34.2L298.48-34.2Q301.28-34.2 302.43-32.98 303.58-31.75 303.58-29.1L303.58-29.1Q303.58-26.2 303.6-20.83 303.63-15.45 303.63-13.95L303.63-13.95Q303.63-12.65 303.7-11.88 303.78-11.1 304-10.3 304.23-9.5 304.68-9.08 305.13-8.65 305.88-8.4 306.63-8.15 307.78-8.15ZM346.88-7L346.88-7Q348.58-7 349.8-8.5 351.03-10 351.55-12.2 352.08-14.4 352.08-16.9L352.08-16.9Q352.08-19.45 351.53-21.73 350.98-24 349.75-25.6 348.53-27.2 346.88-27.2L346.88-27.2Q345.28-27.2 344.08-25.6 342.88-24 342.28-21.7 341.68-19.4 341.68-16.9L341.68-16.9Q341.68-14.4 342.25-12.2 342.83-10 344.05-8.5 345.28-7 346.88-7ZM355.73-1.68Q351.78 0.3 346.85 0.3 341.93 0.3 338-1.68 334.08-3.65 331.73-7.6 329.38-11.55 329.38-16.9L329.38-16.9Q329.38-25 334.25-29.78 339.13-34.55 346.88-34.55 354.63-34.55 359.53-29.78 364.43-25 364.43-16.9L364.43-16.9Q364.43-11.55 362.05-7.6 359.68-3.65 355.73-1.68ZM389.62-25.85L389.62-25.85Q389.62-27.4 387.57-27.4L387.57-27.4Q385.47-27.4 383.97-25.05 382.47-22.7 382.47-17.2L382.47-17.2Q382.47-12.1 384.2-9.78 385.92-7.45 388.27-7.45L388.27-7.45Q389.02-7.45 389.65-7.75 390.27-8.05 390.67-8.65 391.07-9.25 391.07-10.1L391.07-10.1Q389.87-10.1 389-10.55 388.12-11 387.72-11.68 387.32-12.35 387.32-13.15L387.32-13.15Q387.32-14.95 388.27-15.85 389.22-16.75 391.52-16.75L391.52-16.75 397.57-16.75Q400.47-16.75 402.07-15.5 403.67-14.25 403.67-11.1L403.67-11.1Q403.67-6.5 399.27-3.08 394.87 0.35 388.82 0.35L388.82 0.35Q383.27 0.35 378.95-1.65 374.62-3.65 372.1-7.63 369.57-11.6 369.57-17.05L369.57-17.05Q369.57-25.15 374.47-29.85 379.37-34.55 387.47-34.55L387.47-34.55Q390.67-34.55 393.22-34.08 395.77-33.6 397.45-32.8 399.12-32 400.25-30.88 401.37-29.75 401.85-28.5 402.32-27.25 402.32-25.9L402.32-25.9Q402.32-24.95 402.02-24.08 401.72-23.2 400.95-22.33 400.17-21.45 398.57-20.9 396.97-20.35 394.72-20.35L394.72-20.35Q391.42-20.35 390.52-21.33 389.62-22.3 389.62-25.85ZM427.57-25.6L427.57-7.5Q427.57-4.65 426.87-2.98 426.17-1.3 424.95-0.65 423.72 0 421.72 0L421.72 0Q418.77 0 417.45-1.58 416.12-3.15 416.07-7.15L416.07-7.15 415.97-25.6 411.72-25.6Q408.57-25.6 407-26.6 405.42-27.6 405.42-30.15L405.42-30.15Q405.42-31.7 406.05-32.6 406.67-33.5 407.92-33.88 409.17-34.25 411.27-34.25L411.27-34.25 432.67-34.25Q435.47-34.25 436.72-33.25 437.97-32.25 437.97-29.8L437.97-29.8Q437.97-28.15 437.25-27.23 436.52-26.3 435.32-25.95 434.12-25.6 432.22-25.6L432.22-25.6 427.57-25.6Z" opacity="1" transform="matrix(1,0,0,1,0,0)" fill="#233565" class="wordmark-text-0" data-fill-palette-color="primary" id="text-0"></path></svg></g></svg></g></svg></g></svg></g><g transform="matrix(1,0,0,1,171.92902185607673,0)"><svg viewBox="0 0 53.639556287846446 32.96440578856552" height="32.96440578856552" width="53.639556287846446"><g><svg xmlns="http://www.w3.org/2000/svg" data-name="Layer 1" viewBox="2.430551767349243 20.791906356811523 95.1390609741211 58.46809387207031" x="0" y="0" height="32.96440578856552" width="53.639556287846446" class="icon-icon-0" data-fill-palette-color="accent" id="icon-0"><path d="M62.78 23l32 55.42 1.3-2.26h-64l1.3 2.26L65.37 23a1.5 1.5 0 0 0-2.59-1.51L30.79 77a1.51 1.51 0 0 0 1.3 2.26h64A1.51 1.51 0 0 0 97.37 77l-32-55.42A1.5 1.5 0 0 0 62.78 23Z" fill="#8bd8bc" data-fill-palette-color="accent"></path><path d="M34.63 23l32 55.42 1.3-2.26h-64l1.3 2.26L37.22 23a1.5 1.5 0 0 0-2.59-1.51L2.63 77a1.51 1.51 0 0 0 1.3 2.26h64A1.51 1.51 0 0 0 69.21 77l-32-55.42A1.5 1.5 0 0 0 34.63 23Z" fill="#8bd8bc" data-fill-palette-color="accent"></path></svg></g></svg></g><g></g></svg></g><defs></defs></svg><rect width="395.5199999999999" height="88.83014095689079" fill="none" stroke="none" visibility="hidden"></rect></g></svg></g></svg>